<svg xmlns="http://www.w3.org/2000/svg" viewBox="0 0 1000 720" class="fig" role="img" aria-labelledby="t d">
  <title id="t">Étiquette d'identification fictive</title>
  <desc id="d">Document fictif pédagogique. Étiquette rectangulaire rédigée en abréviations anglaises, comme beaucoup d'étiquettes industrielles. De haut en bas : la mention document fictif ; le fabricant MFR EX-ATELIER NORD ; la désignation DESC SUPPORT DE PANNEAU ; la référence P/N EX-48213-07 et, à sa droite, l'indice REV C ; le numéro de série S/N EX-000412 et la quantité QTY 1 ; le lot LOT EX-L2406 et la date 2026-03 ; en bas un code-barres et un code carré à deux dimensions qui reprennent ces champs.</desc>
  <rect class="bgp" width="1000" height="720"/>
  <rect class="wh" x="16" y="16" width="968" height="688" rx="26"/>
  <g data-part="mention">
    <rect class="in" x="36" y="34" width="928" height="72" rx="12"/>
  </g>
  <text class="ts tc" x="470" y="83" pointer-events="none">DOCUMENT FICTIF — PÉDAGOGIQUE</text>
  <g data-part="fabricant">
    <rect class="wh" x="36" y="118" width="928" height="76" rx="10"/>
  </g>
  <text class="ts" x="52" y="169" pointer-events="none">MFR</text>
  <text class="tb" x="170" y="170" pointer-events="none">EX-ATELIER NORD</text>
  <g data-part="designation">
    <rect class="wh" x="36" y="206" width="928" height="76" rx="10"/>
  </g>
  <text class="ts" x="52" y="257" pointer-events="none">DESC</text>
  <text class="tb" x="170" y="258" pointer-events="none">SUPPORT DE PANNEAU</text>
  <g data-part="pn">
    <rect class="wh" x="36" y="294" width="524" height="76" rx="10"/>
  </g>
  <text class="ts" x="52" y="345" pointer-events="none">P/N</text>
  <text class="tb" x="170" y="346" pointer-events="none">EX-48213-07</text>
  <g data-part="indice">
    <rect class="wh" x="572" y="294" width="392" height="76" rx="10"/>
  </g>
  <text class="ts" x="588" y="345" pointer-events="none">REV</text>
  <text class="tb" x="700" y="346" pointer-events="none">C</text>
  <g data-part="sn">
    <rect class="wh" x="36" y="382" width="524" height="76" rx="10"/>
  </g>
  <text class="ts" x="52" y="433" pointer-events="none">S/N</text>
  <text class="tb" x="170" y="434" pointer-events="none">EX-000412</text>
  <g data-part="quantite">
    <rect class="wh" x="572" y="382" width="392" height="76" rx="10"/>
  </g>
  <text class="ts" x="588" y="433" pointer-events="none">QTY</text>
  <text class="tb" x="700" y="434" pointer-events="none">1</text>
  <g data-part="lot">
    <rect class="wh" x="36" y="470" width="524" height="76" rx="10"/>
  </g>
  <text class="ts" x="52" y="521" pointer-events="none">LOT</text>
  <text class="tb" x="170" y="522" pointer-events="none">EX-L2406</text>
  <g data-part="date">
    <rect class="wh" x="572" y="470" width="392" height="76" rx="10"/>
  </g>
  <text class="ts" x="588" y="521" pointer-events="none">DATE</text>
  <text class="tb" x="700" y="522" pointer-events="none">2026-03</text>
  <g data-part="code">
    <rect class="wh" x="36" y="558" width="928" height="130" rx="10"/>
    <rect class="dk" x="64" y="576" width="8" height="94"/>
    <rect class="dk" x="78" y="576" width="8" height="94"/>
    <rect class="dk" x="100" y="576" width="12" height="94"/>
    <rect class="dk" x="122" y="576" width="12" height="94"/>
    <rect class="dk" x="148" y="576" width="4" height="94"/>
    <rect class="dk" x="166" y="576" width="4" height="94"/>
    <rect class="dk" x="176" y="576" width="12" height="94"/>
    <rect class="dk" x="194" y="576" width="8" height="94"/>
    <rect class="dk" x="208" y="576" width="4" height="94"/>
    <rect class="dk" x="226" y="576" width="12" height="94"/>
    <rect class="dk" x="252" y="576" width="12" height="94"/>
    <rect class="dk" x="270" y="576" width="8" height="94"/>
    <rect class="dk" x="288" y="576" width="4" height="94"/>
    <rect class="dk" x="306" y="576" width="4" height="94"/>
    <rect class="dk" x="324" y="576" width="4" height="94"/>
    <rect class="dk" x="334" y="576" width="12" height="94"/>
    <rect class="dk" x="360" y="576" width="12" height="94"/>
    <rect class="dk" x="386" y="576" width="12" height="94"/>
    <rect class="dk" x="412" y="576" width="4" height="94"/>
    <rect class="dk" x="426" y="576" width="4" height="94"/>
    <rect class="dk" x="440" y="576" width="8" height="94"/>
    <rect class="dk" x="454" y="576" width="12" height="94"/>
    <rect class="dk" x="472" y="576" width="12" height="94"/>
    <rect class="dk" x="494" y="576" width="4" height="94"/>
    <rect class="dk" x="508" y="576" width="8" height="94"/>
    <rect class="dk" x="526" y="576" width="4" height="94"/>
    <rect class="dk" x="544" y="576" width="8" height="94"/>
    <rect class="dk" x="640" y="569" width="9" height="9"/>
    <rect class="dk" x="658" y="569" width="9" height="9"/>
    <rect class="dk" x="676" y="569" width="9" height="9"/>
    <rect class="dk" x="694" y="569" width="9" height="9"/>
    <rect class="dk" x="712" y="569" width="9" height="9"/>
    <rect class="dk" x="730" y="569" width="9" height="9"/>
    <rect class="dk" x="640" y="578" width="9" height="9"/>
    <rect class="dk" x="667" y="578" width="9" height="9"/>
    <rect class="dk" x="676" y="578" width="9" height="9"/>
    <rect class="dk" x="685" y="578" width="9" height="9"/>
    <rect class="dk" x="694" y="578" width="9" height="9"/>
    <rect class="dk" x="730" y="578" width="9" height="9"/>
    <rect class="dk" x="739" y="578" width="9" height="9"/>
    <rect class="dk" x="640" y="587" width="9" height="9"/>
    <rect class="dk" x="658" y="587" width="9" height="9"/>
    <rect class="dk" x="685" y="587" width="9" height="9"/>
    <rect class="dk" x="694" y="587" width="9" height="9"/>
    <rect class="dk" x="721" y="587" width="9" height="9"/>
    <rect class="dk" x="640" y="596" width="9" height="9"/>
    <rect class="dk" x="658" y="596" width="9" height="9"/>
    <rect class="dk" x="676" y="596" width="9" height="9"/>
    <rect class="dk" x="685" y="596" width="9" height="9"/>
    <rect class="dk" x="712" y="596" width="9" height="9"/>
    <rect class="dk" x="739" y="596" width="9" height="9"/>
    <rect class="dk" x="640" y="605" width="9" height="9"/>
    <rect class="dk" x="685" y="605" width="9" height="9"/>
    <rect class="dk" x="703" y="605" width="9" height="9"/>
    <rect class="dk" x="712" y="605" width="9" height="9"/>
    <rect class="dk" x="721" y="605" width="9" height="9"/>
    <rect class="dk" x="730" y="605" width="9" height="9"/>
    <rect class="dk" x="640" y="614" width="9" height="9"/>
    <rect class="dk" x="676" y="614" width="9" height="9"/>
    <rect class="dk" x="685" y="614" width="9" height="9"/>
    <rect class="dk" x="694" y="614" width="9" height="9"/>
    <rect class="dk" x="703" y="614" width="9" height="9"/>
    <rect class="dk" x="712" y="614" width="9" height="9"/>
    <rect class="dk" x="721" y="614" width="9" height="9"/>
    <rect class="dk" x="739" y="614" width="9" height="9"/>
    <rect class="dk" x="640" y="623" width="9" height="9"/>
    <rect class="dk" x="667" y="623" width="9" height="9"/>
    <rect class="dk" x="676" y="623" width="9" height="9"/>
    <rect class="dk" x="685" y="623" width="9" height="9"/>
    <rect class="dk" x="640" y="632" width="9" height="9"/>
    <rect class="dk" x="658" y="632" width="9" height="9"/>
    <rect class="dk" x="685" y="632" width="9" height="9"/>
    <rect class="dk" x="694" y="632" width="9" height="9"/>
    <rect class="dk" x="703" y="632" width="9" height="9"/>
    <rect class="dk" x="712" y="632" width="9" height="9"/>
    <rect class="dk" x="730" y="632" width="9" height="9"/>
    <rect class="dk" x="739" y="632" width="9" height="9"/>
    <rect class="dk" x="640" y="641" width="9" height="9"/>
    <rect class="dk" x="667" y="641" width="9" height="9"/>
    <rect class="dk" x="685" y="641" width="9" height="9"/>
    <rect class="dk" x="712" y="641" width="9" height="9"/>
    <rect class="dk" x="730" y="641" width="9" height="9"/>
    <rect class="dk" x="640" y="650" width="9" height="9"/>
    <rect class="dk" x="649" y="650" width="9" height="9"/>
    <rect class="dk" x="667" y="650" width="9" height="9"/>
    <rect class="dk" x="676" y="650" width="9" height="9"/>
    <rect class="dk" x="694" y="650" width="9" height="9"/>
    <rect class="dk" x="703" y="650" width="9" height="9"/>
    <rect class="dk" x="712" y="650" width="9" height="9"/>
    <rect class="dk" x="730" y="650" width="9" height="9"/>
    <rect class="dk" x="739" y="650" width="9" height="9"/>
    <rect class="dk" x="640" y="659" width="9" height="9"/>
    <rect class="dk" x="649" y="659" width="9" height="9"/>
    <rect class="dk" x="658" y="659" width="9" height="9"/>
    <rect class="dk" x="676" y="659" width="9" height="9"/>
    <rect class="dk" x="721" y="659" width="9" height="9"/>
    <rect class="dk" x="730" y="659" width="9" height="9"/>
    <rect class="dk" x="640" y="668" width="9" height="9"/>
    <rect class="dk" x="649" y="668" width="9" height="9"/>
    <rect class="dk" x="658" y="668" width="9" height="9"/>
    <rect class="dk" x="667" y="668" width="9" height="9"/>
    <rect class="dk" x="676" y="668" width="9" height="9"/>
    <rect class="dk" x="685" y="668" width="9" height="9"/>
    <rect class="dk" x="694" y="668" width="9" height="9"/>
    <rect class="dk" x="703" y="668" width="9" height="9"/>
    <rect class="dk" x="712" y="668" width="9" height="9"/>
    <rect class="dk" x="721" y="668" width="9" height="9"/>
    <rect class="dk" x="730" y="668" width="9" height="9"/>
    <rect class="dk" x="739" y="668" width="9" height="9"/>
  </g>
  <g class="badges">
    <g class="badge" data-badge="mention" transform="translate(924 70)"><circle class="bd" r="26"/><text class="bn">10</text></g>
    <g class="badge" data-badge="fabricant" transform="translate(924 156)"><circle class="bd" r="26"/><text class="bn">1</text></g>
    <g class="badge" data-badge="designation" transform="translate(924 244)"><circle class="bd" r="26"/><text class="bn">2</text></g>
    <g class="badge" data-badge="pn" transform="translate(520 332)"><circle class="bd" r="26"/><text class="bn">3</text></g>
    <g class="badge" data-badge="indice" transform="translate(924 332)"><circle class="bd" r="26"/><text class="bn">4</text></g>
    <g class="badge" data-badge="sn" transform="translate(520 420)"><circle class="bd" r="26"/><text class="bn">5</text></g>
    <g class="badge" data-badge="quantite" transform="translate(924 420)"><circle class="bd" r="26"/><text class="bn">6</text></g>
    <g class="badge" data-badge="lot" transform="translate(520 508)"><circle class="bd" r="26"/><text class="bn">7</text></g>
    <g class="badge" data-badge="date" transform="translate(924 508)"><circle class="bd" r="26"/><text class="bn">8</text></g>
    <g class="badge" data-badge="code" transform="translate(924 623)"><circle class="bd" r="26"/><text class="bn">9</text></g>
  </g>
</svg>
